# xmcd
#
# Track frame offsets:
# 150
# 8965
# 20207
# 31444
# 47730
# 63559
# 79594
# 90461
# 109481
# 123585
# 134844
# 145395
# 172165
# 183805
# 198059
#
# Disc length: 2768 seconds
#
#
# Revision: 0
# Processed by: cddbd v1.5.2PL0 Copyright (c) Steve Scherf et al.
# Submitted via: FreeRIP 2.40 
#
DISCID=da0ace0f
DTITLE=Ray Charles - Originals
DYEAR=0207
DGENRE=Jazz+Funk
TTITLE0=Hit the Road Jack
TTITLE1=I don't nedd no doctor
TTITLE2=My baby don't give me
TTITLE3=Georgia on my mind
TTITLE4=Cry
TTITLE5=Your cheating heart
TTITLE6=Sentimental blues
TTITLE7=I can't stop loving you
TTITLE8=Understanding
TTITLE9=She's on the ball
TTITLE10=Hey now
TTITLE11=I got a woman
TTITLE12=Don't set me free
TTITLE13=No one
TTITLE14=Busted
EXTD=
EXTT0=
EXTT1=
EXTT2=
EXTT3=
EXTT4=
EXTT5=
EXTT6=
EXTT7=
EXTT8=
EXTT9=
EXTT10=
EXTT11=
EXTT12=
EXTT13=
EXTT14=
PLAYORDER=
